<svg id="logo-66" width="80" height="80" viewBox="0 0 50 50" fill="none" xmlns="http://www.w3.org/2000/svg"><path class="stroke" opacity="0.1" d="M34.53 25C34.53 19.7367 30.2632 15.47 25 15.47C19.7367 15.47 15.47 19.7367 15.47 25C15.47 30.2632 19.7367 34.53 25 34.53C30.2632 34.53 34.53 30.2632 34.53 25Z" stroke="black" stroke-width="0.5" stroke-miterlimit="10"></path><path class="stroke" opacity="0.18" d="M25.63 14.79H24.38C18.7412 14.79 14.17 19.3612 14.17 25V25.01C14.17 30.6489 18.7412 35.22 24.38 35.22H25.63C31.2688 35.22 35.84 30.6489 35.84 25.01V25C35.84 19.3612 31.2688 14.79 25.63 14.79Z" stroke="black" stroke-width="0.51" stroke-miterlimit="10"></path><path class="stroke" opacity="0.26" d="M26.24 14.1001H23.76C17.7401 14.1001 12.86 18.9802 12.86 25.0001C12.86 31.02 17.7401 35.9001 23.76 35.9001H26.24C32.2599 35.9001 37.14 31.02 37.14 25.0001C37.14 18.9802 32.2599 14.1001 26.24 14.1001Z" stroke="black" stroke-width="0.53" stroke-miterlimit="10"></path><path class="stroke" opacity="0.35" d="M26.86 13.4199H23.13C16.7345 13.4199 11.55 18.6045 11.55 24.9999V25.0099C11.55 31.4054 16.7345 36.5899 23.13 36.5899H26.86C33.2554 36.5899 38.44 31.4054 38.44 25.0099V24.9999C38.44 18.6045 33.2554 13.4199 26.86 13.4199Z" stroke="black" stroke-width="0.54" stroke-miterlimit="10"></path><path class="stroke" opacity="0.43" d="M27.48 12.73H22.52C15.7435 12.73 10.25 18.2234 10.25 25C10.25 31.7765 15.7435 37.27 22.52 37.27H27.48C34.2565 37.27 39.75 31.7765 39.75 25C39.75 18.2234 34.2565 12.73 27.48 12.73Z" stroke="black" stroke-width="0.56" stroke-miterlimit="10"></path><path class="stroke" opacity="0.51" d="M28.11 12.05H21.89C14.7379 12.05 8.94 17.848 8.94 25C8.94 32.1521 14.7379 37.9501 21.89 37.9501H28.11C35.2621 37.9501 41.06 32.1521 41.06 25C41.06 17.848 35.2621 12.05 28.11 12.05Z" stroke="black" stroke-width="0.57" stroke-miterlimit="10"></path><path class="stroke" opacity="0.59" d="M28.73 11.3601H21.28C13.7469 11.3601 7.64001 17.4647 7.64001 24.9951C7.64001 32.5255 13.7469 38.6301 21.28 38.6301H28.73C36.2632 38.6301 42.37 32.5255 42.37 24.9951C42.37 17.4647 36.2632 11.3601 28.73 11.3601Z" stroke="black" stroke-width="0.59" stroke-miterlimit="10"></path><path class="stroke" opacity="0.67" d="M29.35 10.6799H20.65C12.7413 10.6799 6.33002 17.0912 6.33002 24.9999C6.33002 32.9086 12.7413 39.3199 20.65 39.3199H29.35C37.2587 39.3199 43.67 32.9086 43.67 24.9999C43.67 17.0912 37.2587 10.6799 29.35 10.6799Z" stroke="black" stroke-width="0.6" stroke-miterlimit="10"></path><path class="stroke" opacity="0.75" d="M29.96 9.98999H20.03C11.7402 9.98999 5.02002 16.708 5.02002 24.995C5.02002 33.282 11.7402 40 20.03 40H29.96C38.2498 40 44.97 33.282 44.97 24.995C44.97 16.708 38.2498 9.98999 29.96 9.98999Z" stroke="black" stroke-width="0.62" stroke-miterlimit="10"></path><path class="stroke" opacity="0.84" d="M30.6 9.31006H19.41C10.7446 9.31006 3.71997 16.3347 3.71997 25.0001C3.71997 33.6654 10.7446 40.6901 19.41 40.6901H30.6C39.2653 40.6901 46.29 33.6654 46.29 25.0001C46.29 16.3347 39.2653 9.31006 30.6 9.31006Z" stroke="black" stroke-width="0.63" stroke-miterlimit="10"></path><path class="stroke" opacity="0.92" d="M31.21 8.62012H18.79C9.74355 8.62012 2.40997 15.9515 2.40997 24.9951C2.40997 34.0388 9.74355 41.3701 18.79 41.3701H31.21C40.2564 41.3701 47.59 34.0388 47.59 24.9951C47.59 15.9515 40.2564 8.62012 31.21 8.62012Z" stroke="black" stroke-width="0.65" stroke-miterlimit="10"></path><path class="stroke" d="M31.83 7.93994H18.16C8.738 7.93994 1.09998 15.578 1.09998 24.9999C1.09998 34.4219 8.738 42.0599 18.16 42.0599H31.83C41.252 42.0599 48.89 34.4219 48.89 24.9999C48.89 15.578 41.252 7.93994 31.83 7.93994Z" stroke="black" stroke-width="0.66" stroke-miterlimit="10"></path></svg>